<svg xmlns="http://www.w3.org/2000/svg" width="24" height="24" fill="none" viewBox="0 0 24 24">
  <path fill="#231F20" fill-rule="evenodd" d="M3 12a2 2 0 114.001.001A2 2 0 013 12zm9-2a2 2 0 10.001 4.001A2 2 0 0012 10zm7 0a2 2 0 10.001 4.001A2 2 0 0019 10z" clip-rule="evenodd"/>
  <mask id="a" width="18" height="4" x="3" y="10" maskUnits="userSpaceOnUse">
    <path fill="#fff" fill-rule="evenodd" d="M3 12a2 2 0 114.001.001A2 2 0 013 12zm9-2a2 2 0 10.001 4.001A2 2 0 0012 10zm7 0a2 2 0 10.001 4.001A2 2 0 0019 10z" clip-rule="evenodd"/>
  </mask>
  <g mask="url(#a)">
    <path fill="#B7BDCB" d="M0 0h24v24H0z"/>
  </g>
</svg>
