<svg xmlns="http://www.w3.org/2000/svg" width="20" height="20" fill="none" viewBox="0 0 20 20">
  <path fill="#F36" fill-rule="evenodd" d="M6.667 8.333a1.25 1.25 0 10-.001-2.5 1.25 1.25 0 000 2.5zm8.333 7.5H5.468l5.837-4.87c.205-.175.577-.174.777-.001l3.751 3.2V15c0 .46-.373.833-.833.833zM5 4.167h10c.46 0 .833.373.833.833v6.97l-2.669-2.277c-.825-.701-2.116-.701-2.933-.005l-6.064 5.06V5c0-.46.373-.833.833-.833zM15 2.5H5A2.503 2.503 0 002.5 5v10c0 1.378 1.122 2.5 2.5 2.5h10c1.378 0 2.5-1.122 2.5-2.5V5c0-1.378-1.122-2.5-2.5-2.5z" clip-rule="evenodd"/>
  <mask id="a" width="16" height="16" x="2" y="2" maskUnits="userSpaceOnUse">
    <path fill="#fff" fill-rule="evenodd" d="M6.667 8.333a1.25 1.25 0 10-.001-2.5 1.25 1.25 0 000 2.5zm8.333 7.5H5.468l5.837-4.87c.205-.175.577-.174.777-.001l3.751 3.2V15c0 .46-.373.833-.833.833zM5 4.167h10c.46 0 .833.373.833.833v6.97l-2.669-2.277c-.825-.701-2.116-.701-2.933-.005l-6.064 5.06V5c0-.46.373-.833.833-.833zM15 2.5H5A2.503 2.503 0 002.5 5v10c0 1.378 1.122 2.5 2.5 2.5h10c1.378 0 2.5-1.122 2.5-2.5V5c0-1.378-1.122-2.5-2.5-2.5z" clip-rule="evenodd"/>
  </mask>
  <g mask="url(#a)">
    <path fill="#F36" d="M0 0h20v20H0z"/>
  </g>
</svg>
