<svg xmlns="http://www.w3.org/2000/svg" width="40" height="40" fill="none" viewBox="0 0 40 40">
  <circle cx="20" cy="20" r="20" fill="url(#paint0_linear)"/>
  <g filter="url(#filter0_dd)">
    <path fill="#231F20" fill-rule="evenodd" d="M27 19h-6v-6a1 1 0 10-2 0v6h-6a1 1 0 100 2h6v6a1 1 0 102 0v-6h6a1 1 0 100-2" clip-rule="evenodd"/>
    <mask id="a" width="16" height="16" x="12" y="12" maskUnits="userSpaceOnUse">
      <path fill="#fff" fill-rule="evenodd" d="M27 19h-6v-6a1 1 0 10-2 0v6h-6a1 1 0 100 2h6v6a1 1 0 102 0v-6h6a1 1 0 100-2" clip-rule="evenodd"/>
    </mask>
    <g filter="url(#filter1_dd)" mask="url(#a)">
      <path fill="#fff" d="M8 8h24v24H8z"/>
    </g>
  </g>
  <defs>
    <filter id="filter0_dd" width="28" height="28" x="6" y="7" color-interpolation-filters="sRGB" filterUnits="userSpaceOnUse">
      <feFlood flood-opacity="0" result="BackgroundImageFix"/>
      <feColorMatrix in="SourceAlpha" values="0 0 0 0 0 0 0 0 0 0 0 0 0 0 0 0 0 0 127 0"/>
      <feOffset dy="1"/>
      <feGaussianBlur stdDeviation=".5"/>
      <feColorMatrix values="0 0 0 0 0 0 0 0 0 0 0 0 0 0 0 0 0 0 0.03 0"/>
      <feBlend in2="BackgroundImageFix" result="effect1_dropShadow"/>
      <feColorMatrix in="SourceAlpha" values="0 0 0 0 0 0 0 0 0 0 0 0 0 0 0 0 0 0 127 0"/>
      <feOffset dy="1"/>
      <feGaussianBlur stdDeviation="1"/>
      <feColorMatrix values="0 0 0 0 0 0 0 0 0 0 0 0 0 0 0 0 0 0 0.03 0"/>
      <feBlend in2="effect1_dropShadow" result="effect2_dropShadow"/>
      <feBlend in="SourceGraphic" in2="effect2_dropShadow" result="shape"/>
    </filter>
    <filter id="filter1_dd" width="28" height="28" x="6" y="7" color-interpolation-filters="sRGB" filterUnits="userSpaceOnUse">
      <feFlood flood-opacity="0" result="BackgroundImageFix"/>
      <feColorMatrix in="SourceAlpha" values="0 0 0 0 0 0 0 0 0 0 0 0 0 0 0 0 0 0 127 0"/>
      <feOffset dy="1"/>
      <feGaussianBlur stdDeviation=".5"/>
      <feColorMatrix values="0 0 0 0 0 0 0 0 0 0 0 0 0 0 0 0 0 0 0.03 0"/>
      <feBlend in2="BackgroundImageFix" result="effect1_dropShadow"/>
      <feColorMatrix in="SourceAlpha" values="0 0 0 0 0 0 0 0 0 0 0 0 0 0 0 0 0 0 127 0"/>
      <feOffset dy="1"/>
      <feGaussianBlur stdDeviation="1"/>
      <feColorMatrix values="0 0 0 0 0 0 0 0 0 0 0 0 0 0 0 0 0 0 0.03 0"/>
      <feBlend in2="effect1_dropShadow" result="effect2_dropShadow"/>
      <feBlend in="SourceGraphic" in2="effect2_dropShadow" result="shape"/>
    </filter>
    <linearGradient id="paint0_linear" x1="29.333" x2="6.667" y1="37.333" y2="4" gradientUnits="userSpaceOnUse">
      <stop stop-color="#2A8BF2"/>
      <stop offset="1" stop-color="#7CB8F7"/>
    </linearGradient>
  </defs>
</svg>
