<svg xmlns="http://www.w3.org/2000/svg" width="24" height="24" fill="none" viewBox="0 0 24 24">
  <path fill="#231F20" fill-rule="evenodd" d="M19 11h-6V5a1 1 0 10-2 0v6H5a1 1 0 100 2h6v6a1 1 0 102 0v-6h6a1 1 0 100-2z" clip-rule="evenodd"/>
  <mask id="a" width="16" height="16" x="4" y="4" maskUnits="userSpaceOnUse">
    <path fill="#fff" fill-rule="evenodd" d="M19 11h-6V5a1 1 0 10-2 0v6H5a1 1 0 100 2h6v6a1 1 0 102 0v-6h6a1 1 0 100-2z" clip-rule="evenodd"/>
  </mask>
  <g mask="url(#a)">
    <path fill="#fff" d="M0 0h24v24H0z"/>
  </g>
</svg>
